<mxfile host="app.diagrams.net" modified="2023-04-21T08:52:21.257Z" agent="Mozilla/5.0 (Windows NT 10.0; Win64; x64) AppleWebKit/537.36 (KHTML, like Gecko) Chrome/112.0.0.0 Safari/537.36" version="21.1.9" etag="aMszXZ_iJe-FbwbWYNUX" type="github">
  <diagram name="Page-1" id="4Vv64EpsGrLCivHkj30_">
    <mxGraphModel>
      <root>
        <mxCell id="0" />
        <mxCell id="1" parent="0" />
      </root>
    </mxGraphModel>
  </diagram>
</mxfile>
